<svg xmlns="http://www.w3.org/2000/svg" viewBox="0 0 24 24">
  <path fill="#1b3c6e" d="M12 15.5A3.5 3.5 0 0 1 8.5 12 3.5 3.5 0 0 1 12 8.5a3.5 3.5 0 0 1 3.5 3.5 3.5 3.5 0 0 1-3.5 3.5m7.43-2.92c.04-.3.07-.61.07-.93 0-.32-.03-.62-.07-.93l2-1.55c.18-.14.23-.41.12-.62l-1.9-3.29c-.11-.22-.37-.3-.59-.22l-2.39.96c-.5-.38-1.03-.7-1.62-.94l-.36-2.54c-.04-.24-.24-.41-.48-.41h-3.8c-.24 0-.43.17-.47.41l-.36 2.54c-.59.24-1.13.57-1.62.94L4.6 6.49c-.22-.09-.47 0-.59.22L2.1 9.99c-.12.21-.06.48.12.62l2 1.55c-.04.31-.08.62-.08.94 0 .32.03.63.08.94l-2 1.55c-.18.14-.23.41-.12.62l1.9 3.29c.11.22.37.3.59.22l2.39-.96c.5.38 1.03.7 1.62.94l.36 2.54c.04.24.24.41.48.41h3.8c.24 0 .44-.17.47-.41l.36-2.54c.59-.24 1.13-.56 1.62-.94l2.39.96c.22.09.47 0 .59-.22l1.9-3.29c.12-.21.07-.48-.12-.62l-2-1.55z"/>
</svg>
