<svg xmlns="http://www.w3.org/2000/svg" viewBox="0 0 100 100">
  <defs>
    <mask id="m">
      <circle cx="50" cy="50" r="32" fill="white"/>
      <rect x="44" y="4" width="12" height="22" rx="2" fill="white"/>
      <rect x="44" y="4" width="12" height="22" rx="2" fill="white" transform="rotate(45 50 50)"/>
      <rect x="44" y="4" width="12" height="22" rx="2" fill="white" transform="rotate(90 50 50)"/>
      <rect x="44" y="4" width="12" height="22" rx="2" fill="white" transform="rotate(135 50 50)"/>
      <rect x="44" y="4" width="12" height="22" rx="2" fill="white" transform="rotate(180 50 50)"/>
      <rect x="44" y="4" width="12" height="22" rx="2" fill="white" transform="rotate(225 50 50)"/>
      <rect x="44" y="4" width="12" height="22" rx="2" fill="white" transform="rotate(270 50 50)"/>
      <rect x="44" y="4" width="12" height="22" rx="2" fill="white" transform="rotate(315 50 50)"/>
      <circle cx="50" cy="50" r="14" fill="black"/>
    </mask>
  </defs>
  <rect width="100" height="100" fill="#1b3c6e" mask="url(#m)"/>
</svg>
